<svg width="165" height="39" viewBox="0 0 165 39" fill="none" xmlns="http://www.w3.org/2000/svg">
<g clip-path="url(#clip0_22_45)">
<path d="M20.4302 10.3173C12.2052 10.3173 5.55371 15.6992 5.55371 22.2606C5.55371 27.2738 9.34434 31.5498 14.78 33.3192C13.5641 35.236 10.4172 38.6273 11.7761 38.996H12.0621C12.4198 38.9222 14.1363 38.3324 14.3508 38.2587C19.858 36.1944 25.0791 34.1302 27.7254 32.6557C32.2312 30.5914 35.3066 26.684 35.3066 22.2606C35.2351 15.6254 28.5836 10.3173 20.4302 10.3173ZM20.4302 30.8863C14.4224 30.8863 9.5589 27.0527 9.5589 22.3343C9.5589 17.616 14.4224 13.7823 20.4302 13.7823C26.438 13.7823 31.3014 17.616 31.3014 22.3343C31.3014 27.0527 26.438 30.8863 20.4302 30.8863Z" fill="white"/>
<path d="M20.4285 0C19.5703 0 19.2842 0.958408 19.2842 3.61247C19.2842 5.67674 19.4987 6.48771 19.9994 6.93005C20.1424 7.0775 20.2855 7.07749 20.4285 7.15122C20.5107 7.1457 20.5911 7.1233 20.6648 7.08532C20.7385 7.04733 20.804 6.99455 20.8577 6.93005C21.3583 6.48771 21.5729 5.67674 21.5729 3.61247C21.5729 0.958408 21.2868 0.073724 20.4285 0Z" fill="white"/>
<path d="M7.6241 5.08624C6.90888 5.67603 7.19496 6.48699 8.55387 8.33009C9.55517 9.73085 10.1273 10.2469 10.771 10.1732C10.923 10.1579 11.0697 10.1075 11.2002 10.0258C11.2773 9.97929 11.3432 9.91528 11.3928 9.83863C11.4423 9.76199 11.4743 9.6747 11.4863 9.58341C11.7008 8.91989 11.4147 8.25637 10.4134 6.85561C8.983 5.01251 8.26779 4.57017 7.6241 5.08624Z" fill="white"/>
<path d="M2.97745 14.1573C1.26094 13.0514 0.4742 12.9777 0.116593 13.6413C-0.241015 14.3048 0.188114 14.9683 1.90463 16.0004C3.19202 16.8114 3.83571 17.0325 4.40788 16.7377C4.55522 16.6824 4.68086 16.5788 4.76549 16.4428C4.82379 16.3035 4.84834 16.1517 4.83701 16.0004C4.76549 15.4843 4.33636 14.9683 2.97745 14.1573Z" fill="white"/>
<path d="M33.0877 5.01057C32.3725 4.4945 31.6573 5.01057 30.3699 6.9274C29.3686 8.40188 29.154 9.06538 29.3686 9.7289C29.4222 9.88077 29.5227 10.0103 29.6547 10.0975C29.7851 10.1793 29.9318 10.2297 30.0838 10.245C30.7275 10.245 31.2996 9.7289 32.2294 8.32815C33.5883 6.41132 33.8029 5.52664 33.0877 5.01057Z" fill="white"/>
<path d="M37.6669 14.1573C39.3835 13.0514 40.1702 12.9777 40.5278 13.6413C40.8854 14.3048 40.4563 14.9683 38.7398 16.0004C37.4524 16.8114 36.8087 17.0325 36.2365 16.7377C36.0892 16.6824 35.9635 16.5788 35.8789 16.4428C35.8206 16.3035 35.796 16.1517 35.8074 16.0004C35.8789 15.4843 36.308 14.9683 37.6669 14.1573Z" fill="white"/>
<path d="M51.7546 30.5951C51.7003 30.537 51.6593 30.4672 51.6345 30.3907C51.6098 30.3141 51.6019 30.2329 51.6115 30.1528V16.219H47.0342C46.8822 16.2037 46.7355 16.1533 46.605 16.0715C46.5508 16.0134 46.5097 15.9436 46.485 15.867C46.4602 15.7905 46.4524 15.7092 46.462 15.6292V13.7124C46.4768 13.5557 46.5257 13.4045 46.605 13.27C46.6766 13.1226 46.8196 13.1226 47.0342 13.1226H59.6219C59.7739 13.1379 59.9206 13.1883 60.0511 13.27C60.1053 13.3281 60.1464 13.398 60.1711 13.4745C60.1959 13.551 60.2037 13.6323 60.1941 13.7124V15.6292C60.1793 15.7858 60.1304 15.937 60.0511 16.0715C59.9947 16.1275 59.9269 16.1698 59.8527 16.1953C59.7784 16.2208 59.6996 16.2289 59.6219 16.219H55.0446V30.1528C55.0297 30.3095 54.9808 30.4606 54.9015 30.5951C54.83 30.7426 54.687 30.7426 54.4724 30.7426H52.1837C52.106 30.7525 52.0272 30.7444 51.953 30.7189C51.8787 30.6934 51.8109 30.6511 51.7546 30.5951Z" fill="white"/>
<path d="M62.4117 30.673C62.3574 30.6149 62.3164 30.545 62.2916 30.4685C62.2669 30.3919 62.259 30.3107 62.2686 30.2306V13.7165C62.2835 13.5598 62.3324 13.4086 62.4117 13.2741C62.4832 13.1267 62.6262 13.1267 62.8408 13.1267H65.058C65.2099 13.1419 65.3566 13.1924 65.4871 13.2741C65.5414 13.3322 65.5824 13.4021 65.6071 13.4786C65.6319 13.5551 65.6397 13.6364 65.6301 13.7165V20.2042H72.7823V13.7165C72.7971 13.5598 72.846 13.4086 72.9253 13.2741C72.9817 13.2182 73.0495 13.1759 73.1237 13.1504C73.198 13.1249 73.2768 13.1168 73.3544 13.1267H75.6431C75.7951 13.1419 75.9418 13.1924 76.0723 13.2741C76.1516 13.4086 76.2005 13.5598 76.2153 13.7165V30.2306C76.2005 30.3873 76.1516 30.5385 76.0723 30.673C76.0007 30.8204 75.8577 30.8204 75.6431 30.8204H73.3544C73.2025 30.8051 73.0558 30.7547 72.9253 30.673C72.871 30.6149 72.83 30.545 72.8053 30.4685C72.7805 30.3919 72.7727 30.3107 72.7823 30.2306V23.448H65.6301V30.2306C65.6153 30.3873 65.5664 30.5385 65.4871 30.673C65.4307 30.7289 65.3629 30.7712 65.2887 30.7967C65.2145 30.8222 65.1356 30.8303 65.058 30.8204H62.7693C62.6262 30.8204 62.4832 30.8204 62.4117 30.673Z" fill="white"/>
<path d="M78.3619 30.6717C78.3076 30.6136 78.2666 30.5437 78.2418 30.4672C78.2171 30.3907 78.2092 30.3094 78.2188 30.2293V18.5809C78.2337 18.4243 78.2826 18.2731 78.3619 18.1386C78.4182 18.0827 78.486 18.0404 78.5602 18.0149C78.6345 17.9894 78.7133 17.9813 78.791 17.9912H81.1512C81.3032 18.0065 81.4499 18.0569 81.5803 18.1386C81.6596 18.2731 81.7085 18.4243 81.7234 18.5809V30.2293C81.7085 30.386 81.6596 30.5372 81.5803 30.6717C81.5088 30.8191 81.2942 30.8192 81.1512 30.8192H78.791C78.7133 30.829 78.6345 30.8209 78.5602 30.7954C78.486 30.7699 78.4182 30.7276 78.3619 30.6717Z" fill="white"/>
<path d="M83.7964 30.6692C83.7422 30.6111 83.7011 30.5412 83.6764 30.4647C83.6516 30.3882 83.6438 30.3069 83.6534 30.2268V13.7127C83.6682 13.556 83.7171 13.4048 83.7964 13.2703C83.868 13.1229 84.011 13.1229 84.2256 13.1229H86.1566C86.3041 13.1201 86.4493 13.1601 86.5758 13.2383C86.7023 13.3165 86.8048 13.4298 86.8719 13.5652L93.881 24.845V13.7864C93.8958 13.6297 93.9447 13.4786 94.024 13.3441C94.0955 13.1966 94.2386 13.1966 94.4531 13.1966H96.5988C96.7507 13.2119 96.8974 13.2623 97.0279 13.3441C97.0822 13.4022 97.1232 13.472 97.1479 13.5486C97.1727 13.6251 97.1806 13.7063 97.1709 13.7864V30.2268C97.1561 30.3835 97.1072 30.5347 97.0279 30.6692C96.9715 30.7252 96.9038 30.7674 96.8295 30.7929C96.7553 30.8185 96.6764 30.8266 96.5988 30.8167H94.6677C94.5202 30.8194 94.375 30.7794 94.2485 30.7012C94.1221 30.623 94.0195 30.5097 93.9525 30.3743L86.9434 19.3894V30.2268C86.9285 30.3835 86.8796 30.5347 86.8003 30.6692C86.7288 30.8167 86.5858 30.8167 86.3712 30.8167H84.2256C84.011 30.8167 83.868 30.8167 83.7964 30.6692Z" fill="white"/>
<path d="M99.1724 30.6695C99.1181 30.6114 99.0771 30.5415 99.0524 30.465C99.0276 30.3885 99.0198 30.3072 99.0294 30.2272V13.713C99.0442 13.5564 99.0931 13.4052 99.1724 13.2707C99.2439 13.1232 99.387 13.1232 99.6015 13.1232H101.819C101.971 13.1385 102.117 13.1889 102.248 13.2707C102.302 13.3288 102.343 13.3986 102.368 13.4751C102.393 13.5517 102.4 13.6329 102.391 13.713V19.6109L107.898 13.4918C108.009 13.3492 108.151 13.2351 108.313 13.1584C108.474 13.0817 108.65 13.0444 108.828 13.0495H111.331C111.474 13.0495 111.546 13.1232 111.689 13.1969C111.778 13.2978 111.829 13.4288 111.832 13.5655C111.831 13.6226 111.817 13.6786 111.793 13.7297C111.768 13.7807 111.732 13.8253 111.689 13.8604L105.109 21.6015L112.261 30.006C112.318 30.0925 112.343 30.197 112.332 30.3009C112.33 30.4376 112.279 30.5686 112.189 30.6695C112.091 30.7618 111.964 30.8142 111.832 30.817H109.257C109.002 30.823 108.751 30.7455 108.542 30.5958L108.327 30.3746L102.462 23.6657V30.2272C102.448 30.3838 102.399 30.535 102.319 30.6695C102.263 30.7255 102.195 30.7678 102.121 30.7933C102.047 30.8188 101.968 30.8269 101.89 30.817H99.6731C99.5842 30.8325 99.4931 30.8272 99.4065 30.8017C99.3199 30.7762 99.2399 30.7311 99.1724 30.6695Z" fill="white"/>
<path d="M115.982 30.3781C115.068 30.0309 114.272 29.4159 113.693 28.6087C113.195 27.985 112.917 27.2049 112.906 26.397C112.909 26.2603 112.96 26.1293 113.049 26.0284C113.147 25.9361 113.274 25.8837 113.407 25.8809H115.696C115.854 25.8726 116.01 25.9188 116.139 26.0123C116.269 26.1058 116.364 26.2411 116.411 26.397C116.768 27.5766 117.841 28.1663 119.629 28.1663C120.477 28.2299 121.318 27.9672 121.989 27.4291C122.282 27.1804 122.512 26.8633 122.661 26.5042C122.811 26.1452 122.875 25.7545 122.848 25.3648C122.887 25.0026 122.835 24.636 122.698 24.3003C122.56 23.9646 122.341 23.6711 122.061 23.448C121.379 23.0049 120.577 22.7982 119.772 22.8582H117.269C117.117 22.8429 116.97 22.7925 116.84 22.7108C116.786 22.6527 116.745 22.5828 116.72 22.5063C116.695 22.4298 116.687 22.3485 116.697 22.2684V21.1626C116.683 21.025 116.702 20.8861 116.752 20.7577C116.802 20.6293 116.881 20.5152 116.983 20.4253L121.346 16.0019H114.408C114.256 15.9866 114.11 15.9362 113.979 15.8544C113.925 15.7963 113.884 15.7265 113.859 15.6499C113.834 15.5734 113.826 15.4922 113.836 15.4121V13.7165C113.851 13.5598 113.9 13.4086 113.979 13.2741C114.035 13.2182 114.103 13.1759 114.177 13.1504C114.252 13.1249 114.331 13.1168 114.408 13.1267H124.993C125.145 13.1419 125.292 13.1924 125.423 13.2741C125.477 13.3322 125.518 13.4021 125.543 13.4786C125.567 13.5551 125.575 13.6364 125.566 13.7165V15.2646C125.572 15.4016 125.551 15.5384 125.501 15.6657C125.452 15.793 125.376 15.9077 125.279 16.0019L121.06 20.4991H121.346C122.705 20.5757 124.006 21.0916 125.065 21.9735C125.524 22.4443 125.882 23.009 126.116 23.6312C126.35 24.2535 126.455 24.9194 126.424 25.586C126.426 26.6347 126.128 27.6608 125.566 28.535C124.96 29.4112 124.113 30.0791 123.134 30.4518C122.015 30.8916 120.827 31.1165 119.629 31.1153C118.374 31.171 117.124 30.9183 115.982 30.3781Z" fill="white"/>
<path d="M131.217 30.3003C130.207 29.835 129.359 29.0635 128.785 28.0885C128.221 27.1338 127.923 26.0365 127.927 24.9184C127.927 23.4439 128.57 21.822 129.858 19.9789L134.364 13.6386L134.721 13.27C134.877 13.1872 135.047 13.1371 135.222 13.1226H137.582C137.715 13.1253 137.842 13.1778 137.94 13.27C138.029 13.3709 138.08 13.5019 138.083 13.6386C138.083 13.7861 138.083 13.8598 138.011 13.9335L134.578 18.7993C134.909 18.7381 135.244 18.7134 135.58 18.7256C136.631 18.7321 137.664 19.011 138.583 19.5366C139.484 20.0479 140.246 20.7828 140.801 21.6745C141.373 22.5714 141.672 23.624 141.659 24.6972C141.662 25.8154 141.365 26.9126 140.801 27.8674C140.218 28.826 139.405 29.6132 138.44 30.1528C137.334 30.739 136.108 31.0424 134.864 31.0375C133.607 31.1295 132.348 30.875 131.217 30.3003ZM137.153 27.2776C137.47 26.9658 137.717 26.5867 137.878 26.1666C138.038 25.7465 138.108 25.2954 138.083 24.8447C138.114 24.4042 138.047 23.9622 137.886 23.553C137.724 23.1438 137.474 22.7785 137.153 22.4855C136.497 21.9045 135.658 21.5899 134.793 21.6008C134.373 21.5785 133.953 21.6455 133.559 21.7977C133.165 21.9499 132.806 22.1841 132.504 22.4855C132.184 22.7785 131.933 23.1438 131.772 23.553C131.61 23.9622 131.543 24.4042 131.574 24.8447C131.549 25.2954 131.619 25.7465 131.78 26.1666C131.94 26.5867 132.187 26.9658 132.504 27.2776C133.133 27.857 133.949 28.1726 134.793 28.1623C135.658 28.1731 136.497 27.8586 137.153 27.2776Z" fill="white"/>
<path d="M144.946 29.1951C143.826 27.804 143.196 26.063 143.158 24.2556V19.5373C143.163 17.7457 143.798 16.0168 144.946 14.6715C146.019 13.4182 147.664 12.8284 149.81 12.8284C151.955 12.8284 153.6 13.4182 154.673 14.6715C155.821 16.0168 156.456 17.7457 156.461 19.5373C156.461 20.4957 156.533 21.3066 156.533 21.8964C156.533 22.5599 156.533 23.2972 156.461 24.2556C156.457 26.0694 155.822 27.8216 154.673 29.1951C153.6 30.4484 151.955 31.0382 149.738 31.0382C147.593 31.1119 146.019 30.4484 144.946 29.1951ZM152.098 27.1308C152.671 26.2651 152.948 25.2276 152.885 24.1819V19.6847C152.957 18.6609 152.679 17.6436 152.098 16.8095C151.818 16.4693 151.466 16.1996 151.07 16.0207C150.673 15.8418 150.242 15.7586 149.81 15.7773C149.377 15.7586 148.946 15.8418 148.55 16.0207C148.153 16.1996 147.801 16.4693 147.521 16.8095C146.941 17.6436 146.662 18.6609 146.734 19.6847V24.1819C146.672 25.2276 146.948 26.2651 147.521 27.1308C147.801 27.471 148.153 27.7407 148.55 27.9196C148.946 28.0985 149.377 28.1817 149.81 28.163C150.242 28.1817 150.673 28.0985 151.07 27.9196C151.466 27.7407 151.818 27.471 152.098 27.1308Z" fill="white"/>
<path d="M78.3619 15.8504C78.3076 15.7922 78.2666 15.7224 78.2418 15.6458C78.2171 15.5693 78.2092 15.4881 78.2188 15.408V13.7124C78.2337 13.5557 78.2826 13.4045 78.3619 13.27C78.4923 13.1883 78.639 13.1379 78.791 13.1226H81.1512C81.3032 13.1379 81.4499 13.1883 81.5803 13.27C81.6596 13.4045 81.7085 13.5557 81.7234 13.7124V15.408C81.7085 15.5647 81.6596 15.7159 81.5803 15.8504C81.5088 15.9978 81.2942 15.9978 81.1512 15.9978H78.791C78.7133 16.0077 78.6345 15.9996 78.5602 15.9741C78.486 15.9486 78.4182 15.9063 78.3619 15.8504Z" fill="white"/>
<path d="M158.922 13.0459L158.851 12.9722V10.3918H157.921V10.0232H160.138V10.3918H159.28V13.0459H158.922Z" fill="white"/>
<path d="M160.637 13.0459L160.565 12.9722V10.0232H160.923V10.0969L161.853 11.8663L162.783 10.0969V10.0232H163.14V13.0459H162.783V10.7604L162.067 12.2349C162.067 12.2545 162.06 12.2732 162.046 12.287C162.033 12.3009 162.015 12.3086 161.996 12.3086H161.71L161.638 12.2349L160.923 10.7604V13.0459H160.637Z" fill="white"/>
<path d="M160.708 15.7811C159.86 15.7811 159.03 15.5217 158.324 15.0357C157.618 14.5496 157.068 13.8588 156.744 13.0505C156.419 12.2422 156.334 11.3528 156.499 10.4947C156.665 9.63667 157.074 8.84849 157.674 8.22986C158.274 7.61123 159.039 7.18994 159.871 7.01926C160.704 6.84858 161.566 6.93618 162.35 7.27098C163.135 7.60578 163.805 8.17274 164.276 8.90018C164.748 9.62761 165 10.4828 165 11.3577C164.996 12.5298 164.543 13.6529 163.739 14.4817C162.935 15.3105 161.845 15.7776 160.708 15.7811ZM160.708 7.30289C159.93 7.30289 159.17 7.5407 158.523 7.98625C157.876 8.4318 157.372 9.06507 157.074 9.80599C156.776 10.5469 156.698 11.3622 156.85 12.1488C157.002 12.9353 157.377 13.6578 157.927 14.2249C158.477 14.792 159.178 15.1782 159.941 15.3346C160.704 15.4911 161.495 15.4108 162.214 15.1039C162.932 14.797 163.547 14.2773 163.979 13.6104C164.411 12.9436 164.642 12.1597 164.642 11.3577C164.643 10.8248 164.543 10.2968 164.346 9.80415C164.148 9.3115 163.859 8.86388 163.493 8.48704C163.128 8.11021 162.693 7.81159 162.215 7.60837C161.737 7.40515 161.225 7.30133 160.708 7.30289Z" fill="white"/>
</g>
<defs>
<clipPath id="clip0_22_45">
<rect width="165" height="39" fill="white"/>
</clipPath>
</defs>
</svg>
